<svg width="169" height="31" viewBox="0 0 169 31" fill="none" xmlns="http://www.w3.org/2000/svg">
<ellipse cx="15.7998" cy="15.3354" rx="14.9873" ry="15.0868" fill="#FF8C39"/>
<path d="M28.947 12.3109H25.3745C25.3092 11.8487 25.176 11.4382 24.9748 11.0793C24.7736 10.715 24.5153 10.405 24.1999 10.1494C23.8846 9.89386 23.5202 9.69811 23.107 9.56217C22.6991 9.42623 22.256 9.35825 21.7775 9.35825C20.9129 9.35825 20.1597 9.57304 19.5181 10.0026C18.8765 10.4268 18.3789 11.0467 18.0255 11.8623C17.672 12.6725 17.4953 13.6567 17.4953 14.815C17.4953 16.0058 17.672 17.0063 18.0255 17.8166C18.3843 18.6268 18.8846 19.2385 19.5263 19.6518C20.1679 20.065 20.9101 20.2717 21.753 20.2717C22.2261 20.2717 22.6638 20.2091 23.0662 20.0841C23.474 19.959 23.8356 19.7768 24.151 19.5376C24.4664 19.2929 24.7274 18.9965 24.934 18.6485C25.1461 18.3005 25.2929 17.9036 25.3745 17.4577L28.947 17.474C28.8546 18.2407 28.6235 18.9802 28.2537 19.6926C27.8894 20.3995 27.3973 21.0329 26.7774 21.593C26.1629 22.1477 25.4289 22.5881 24.5751 22.9144C23.7269 23.2352 22.7671 23.3956 21.6959 23.3956C20.206 23.3956 18.8737 23.0585 17.6992 22.3842C16.5301 21.7099 15.6057 20.7339 14.926 19.456C14.2517 18.1782 13.9146 16.6311 13.9146 14.815C13.9146 12.9933 14.2571 11.4436 14.9423 10.1657C15.6274 8.88789 16.5573 7.91455 17.7318 7.24572C18.9064 6.57144 20.2277 6.23431 21.6959 6.23431C22.6638 6.23431 23.561 6.37025 24.3875 6.64213C25.2195 6.91402 25.9563 7.31097 26.598 7.83298C27.2396 8.34956 27.7616 8.98305 28.164 9.73345C28.5718 10.4839 28.8328 11.343 28.947 12.3109Z" fill="white"/>
<path d="M37.075 23.4119C35.808 23.4119 34.7123 23.1428 33.7879 22.6044C32.869 22.0607 32.1593 21.3048 31.6591 20.3369C31.1588 19.3636 30.9087 18.2353 30.9087 16.952C30.9087 15.6578 31.1588 14.5268 31.6591 13.5589C32.1593 12.5855 32.869 11.8297 33.7879 11.2913C34.7123 10.7476 35.808 10.4757 37.075 10.4757C38.342 10.4757 39.435 10.7476 40.3539 11.2913C41.2783 11.8297 41.9907 12.5855 42.4909 13.5589C42.9912 14.5268 43.2413 15.6578 43.2413 16.952C43.2413 18.2353 42.9912 19.3636 42.4909 20.3369C41.9907 21.3048 41.2783 22.0607 40.3539 22.6044C39.435 23.1428 38.342 23.4119 37.075 23.4119ZM37.0913 20.7203C37.6677 20.7203 38.1489 20.5572 38.535 20.2309C38.9211 19.8992 39.212 19.4479 39.4078 18.8769C39.609 18.306 39.7096 17.6561 39.7096 16.9275C39.7096 16.1989 39.609 15.5491 39.4078 14.9781C39.212 14.4071 38.9211 13.9558 38.535 13.6241C38.1489 13.2924 37.6677 13.1266 37.0913 13.1266C36.5095 13.1266 36.0201 13.2924 35.6231 13.6241C35.2316 13.9558 34.9353 14.4071 34.7341 14.9781C34.5383 15.5491 34.4404 16.1989 34.4404 16.9275C34.4404 17.6561 34.5383 18.306 34.7341 18.8769C34.9353 19.4479 35.2316 19.8992 35.6231 20.2309C36.0201 20.5572 36.5095 20.7203 37.0913 20.7203ZM53.5349 17.8329V10.6388H57.0095V23.1672H53.6735V20.8916H53.543C53.2602 21.6257 52.7899 22.2156 52.1319 22.6615C51.4794 23.1074 50.6828 23.3304 49.7421 23.3304C48.9047 23.3304 48.1679 23.14 47.5317 22.7594C46.8954 22.3788 46.3979 21.8377 46.039 21.1363C45.6856 20.4348 45.5061 19.5947 45.5007 18.6159V10.6388H48.9754V17.996C48.9808 18.7355 49.1793 19.3201 49.5708 19.7497C49.9623 20.1792 50.487 20.394 51.145 20.394C51.5637 20.394 51.9552 20.2989 52.3195 20.1085C52.6839 19.9128 52.9775 19.6246 53.2004 19.244C53.4288 18.8633 53.5403 18.393 53.5349 17.8329ZM59.7889 23.1672V10.6388H63.1575V12.8248H63.288C63.5164 12.0472 63.8997 11.4599 64.4381 11.063C64.9764 10.6606 65.5963 10.4594 66.2978 10.4594C66.4718 10.4594 66.6594 10.4703 66.8606 10.492C67.0618 10.5138 67.2385 10.5437 67.3907 10.5817V13.6649C67.2276 13.616 67.0019 13.5725 66.7137 13.5344C66.4255 13.4963 66.1618 13.4773 65.9226 13.4773C65.4114 13.4773 64.9547 13.5888 64.5523 13.8117C64.1553 14.0292 63.8399 14.3337 63.6061 14.7252C63.3777 15.1168 63.2635 15.5681 63.2635 16.0792V23.1672H59.7889ZM74.2646 23.4119C72.9813 23.4119 71.8775 23.14 70.9531 22.5963C70.0341 22.0471 69.3272 21.2858 68.8324 20.3125C68.343 19.3391 68.0983 18.2189 68.0983 16.952C68.0983 15.6687 68.3457 14.5431 68.8406 13.5752C69.3408 12.6018 70.0504 11.8433 70.9694 11.2995C71.8884 10.7503 72.9813 10.4757 74.2483 10.4757C75.3413 10.4757 76.2983 10.6742 77.1194 11.0711C77.9405 11.4681 78.5903 12.0254 79.0688 12.7432C79.5473 13.461 79.8111 14.3038 79.86 15.2717H76.5811C76.4886 14.6464 76.244 14.1434 75.847 13.7628C75.4555 13.3767 74.9416 13.1837 74.3054 13.1837C73.7671 13.1837 73.2967 13.3305 72.8943 13.6241C72.4974 13.9123 72.1874 14.3337 71.9645 14.8884C71.7416 15.443 71.6301 16.1146 71.6301 16.903C71.6301 17.7024 71.7388 18.3821 71.9563 18.9422C72.1793 19.5022 72.492 19.9291 72.8943 20.2227C73.2967 20.5164 73.7671 20.6632 74.3054 20.6632C74.7024 20.6632 75.0585 20.5816 75.3739 20.4185C75.6947 20.2554 75.9585 20.0188 76.1651 19.7089C76.3772 19.3935 76.5158 19.0156 76.5811 18.5751H79.86C79.8056 19.5321 79.5446 20.375 79.077 21.1036C78.6148 21.8268 77.9759 22.3924 77.1602 22.8002C76.3445 23.208 75.3794 23.4119 74.2646 23.4119ZM87.7943 23.4119C86.5055 23.4119 85.3962 23.1509 84.4664 22.6289C83.542 22.1015 82.8297 21.3565 82.3294 20.394C81.8291 19.4261 81.579 18.2815 81.579 16.9601C81.579 15.6714 81.8291 14.5404 82.3294 13.567C82.8297 12.5937 83.5338 11.8351 84.4419 11.2913C85.3555 10.7476 86.4267 10.4757 87.6556 10.4757C88.4821 10.4757 89.2516 10.6089 89.9639 10.8754C90.6817 11.1364 91.307 11.5306 91.8399 12.0581C92.3782 12.5855 92.7969 13.2489 93.096 14.0483C93.3951 14.8422 93.5446 15.772 93.5446 16.8378V17.7921H82.9656V15.6388H90.2738C90.2738 15.1385 90.1651 14.6953 89.9476 14.3093C89.7301 13.9232 89.4283 13.6214 89.0422 13.4039C88.6616 13.1809 88.2184 13.0695 87.7127 13.0695C87.1852 13.0695 86.7176 13.1918 86.3098 13.4365C85.9074 13.6758 85.592 13.9993 85.3636 14.4071C85.1352 14.8095 85.0183 15.2581 85.0129 15.753V17.8002C85.0129 18.4201 85.1271 18.9558 85.3555 19.4071C85.5893 19.8584 85.9183 20.2064 86.3424 20.4511C86.7665 20.6958 87.2695 20.8182 87.8514 20.8182C88.2374 20.8182 88.5909 20.7638 88.9117 20.655C89.2325 20.5463 89.5071 20.3831 89.7355 20.1656C89.9639 19.9481 90.1379 19.6817 90.2575 19.3663L93.4712 19.5784C93.3081 20.3505 92.9736 21.0248 92.4679 21.6012C91.9677 22.1721 91.3206 22.618 90.5267 22.9389C89.7382 23.2542 88.8274 23.4119 87.7943 23.4119ZM106.236 14.2114L103.055 14.4071C103.001 14.1353 102.884 13.8906 102.704 13.6731C102.525 13.4501 102.288 13.2734 101.995 13.1429C101.707 13.0069 101.361 12.939 100.959 12.939C100.421 12.939 99.9665 13.0532 99.5967 13.2815C99.227 13.5045 99.0421 13.8036 99.0421 14.1788C99.0421 14.4778 99.1617 14.7307 99.401 14.9373C99.6402 15.1439 100.051 15.3098 100.633 15.4349L102.9 15.8916C104.118 16.1418 105.026 16.5441 105.624 17.0988C106.223 17.6534 106.522 18.3821 106.522 19.2847C106.522 20.1058 106.28 20.8263 105.796 21.4462C105.317 22.0661 104.659 22.5501 103.822 22.8981C102.99 23.2406 102.03 23.4119 100.943 23.4119C99.2841 23.4119 97.9627 23.0666 96.9785 22.3761C95.9997 21.68 95.426 20.7339 95.2575 19.5376L98.6751 19.3581C98.7784 19.8638 99.0285 20.2499 99.4255 20.5164C99.8224 20.7774 100.331 20.9079 100.951 20.9079C101.56 20.9079 102.049 20.791 102.419 20.5572C102.794 20.3179 102.984 20.0107 102.99 19.6355C102.984 19.3201 102.851 19.0618 102.59 18.8606C102.329 18.654 101.927 18.4963 101.383 18.3875L99.2134 17.9552C97.9899 17.7105 97.0791 17.2864 96.4809 16.6828C95.8882 16.0792 95.5919 15.3098 95.5919 14.3745C95.5919 13.5697 95.8094 12.8764 96.2444 12.2946C96.6849 11.7128 97.302 11.2642 98.0959 10.9488C98.8953 10.6334 99.8306 10.4757 100.902 10.4757C102.484 10.4757 103.729 10.8101 104.637 11.4789C105.551 12.1478 106.084 13.0586 106.236 14.2114ZM119.134 14.2114L115.953 14.4071C115.898 14.1353 115.781 13.8906 115.602 13.6731C115.422 13.4501 115.186 13.2734 114.892 13.1429C114.604 13.0069 114.259 12.939 113.856 12.939C113.318 12.939 112.864 13.0532 112.494 13.2815C112.124 13.5045 111.94 13.8036 111.94 14.1788C111.94 14.4778 112.059 14.7307 112.298 14.9373C112.538 15.1439 112.948 15.3098 113.53 15.4349L115.798 15.8916C117.016 16.1418 117.924 16.5441 118.522 17.0988C119.12 17.6534 119.419 18.3821 119.419 19.2847C119.419 20.1058 119.177 20.8263 118.693 21.4462C118.215 22.0661 117.557 22.5501 116.719 22.8981C115.887 23.2406 114.928 23.4119 113.84 23.4119C112.182 23.4119 110.86 23.0666 109.876 22.3761C108.897 21.68 108.324 20.7339 108.155 19.5376L111.573 19.3581C111.676 19.8638 111.926 20.2499 112.323 20.5164C112.72 20.7774 113.228 20.9079 113.848 20.9079C114.457 20.9079 114.947 20.791 115.316 20.5572C115.692 20.3179 115.882 20.0107 115.887 19.6355C115.882 19.3201 115.749 19.0618 115.488 18.8606C115.227 18.654 114.824 18.4963 114.281 18.3875L112.111 17.9552C110.887 17.7105 109.977 17.2864 109.378 16.6828C108.786 16.0792 108.489 15.3098 108.489 14.3745C108.489 13.5697 108.707 12.8764 109.142 12.2946C109.582 11.7128 110.2 11.2642 110.993 10.9488C111.793 10.6334 112.728 10.4757 113.799 10.4757C115.382 10.4757 116.627 10.8101 117.535 11.4789C118.448 12.1478 118.981 13.0586 119.134 14.2114ZM123.638 23.3793C123.1 23.3793 122.638 23.189 122.251 22.8083C121.871 22.4223 121.681 21.9601 121.681 21.4217C121.681 20.8888 121.871 20.4321 122.251 20.0514C122.638 19.6708 123.1 19.4805 123.638 19.4805C124.16 19.4805 124.617 19.6708 125.008 20.0514C125.4 20.4321 125.596 20.8888 125.596 21.4217C125.596 21.7806 125.503 22.1096 125.318 22.4087C125.139 22.7023 124.902 22.9389 124.609 23.1183C124.315 23.2923 123.992 23.3793 123.638 23.3793ZM130.594 27.8654C130.153 27.8654 129.74 27.83 129.354 27.7594C128.973 27.6941 128.658 27.6098 128.408 27.5065L129.191 24.9127C129.598 25.0378 129.965 25.1058 130.292 25.1166C130.623 25.1275 130.909 25.0514 131.148 24.8883C131.393 24.7251 131.591 24.4478 131.744 24.0563L131.948 23.5261L127.453 10.6388H131.107L133.701 19.8394H133.832L136.45 10.6388H140.129L135.259 24.5212C135.025 25.1955 134.707 25.7828 134.305 26.283C133.908 26.7887 133.405 27.1775 132.796 27.4494C132.187 27.7267 131.453 27.8654 130.594 27.8654ZM149.941 17.8329V10.6388H153.415V23.1672H150.079V20.8916H149.949C149.666 21.6257 149.196 22.2156 148.538 22.6615C147.885 23.1074 147.089 23.3304 146.148 23.3304C145.311 23.3304 144.574 23.14 143.938 22.7594C143.301 22.3788 142.804 21.8377 142.445 21.1363C142.092 20.4348 141.912 19.5947 141.907 18.6159V10.6388H145.381V17.996C145.387 18.7355 145.585 19.3201 145.977 19.7497C146.368 20.1792 146.893 20.394 147.551 20.394C147.97 20.394 148.361 20.2989 148.725 20.1085C149.09 19.9128 149.383 19.6246 149.606 19.244C149.835 18.8633 149.946 18.393 149.941 17.8329ZM159.343 19.5621L159.351 15.3941H159.857L163.87 10.6388H167.859L162.467 16.9357H161.643L159.343 19.5621ZM156.195 23.1672V6.46269H159.669V23.1672H156.195ZM164.025 23.1672L160.338 17.7105L162.655 15.2554L168.095 23.1672H164.025Z" fill="#555555"/>
</svg>
